Genre:Drama
Language:English
IMDb:http://www.imdb.com/title/tt1327194/
Source:TNZ/Santanas/INSPiRAL Thanks!
Encoder:Tony

Format : AVI
Format/Info : Audio Video Interleave
File size : 1.12 GiB
Duration : 1h 37mn
Overall bit rate : 1 653 Kbps

Video
ID : 0
Format : MPEG-4 Visual
Format profile : Advanced Simple@L5
Format settings, BVOP : 1
Format settings, QPel : No
Format settings, GMC : No warppoints
Format settings, Matrix : Default (H.263)
Codec ID : XVID
Codec ID/Hint : XviD
Duration : 1h 37mn
Bit rate : 1 451 Kbps
Width : 640 pixels
Height : 272 pixels
Display aspect ratio : 2.35:1
Frame rate : 25.000 fps
Color space : YUV
Chroma subsampling : 4:2:0
Bit depth : 8 bits
Scan type : Progressive
Compression mode : Lossy
Bits/(Pixel*Frame) : 0.333
Stream size : 1 010 MiB (88%)
Writing library : XviD 1.2.1 (UTC 2008-12-04)

Audio
ID : 1
Format : AC-3
Format/Info : Audio Coding 3
Mode extension : CM (complete main)
Codec ID : 2000
Duration : 1h 37mn
Bit rate mode : Constant
Bit rate : 192 Kbps
Channel(s) : 2 channels
Channel positions : Front: L R
Sampling rate : 48.0 KHz
Bit depth : 16 bits
Compression mode : Lossy
Stream size : 134 MiB (12%)
Alignment : Aligned on interleaves
Interleave, duration : 40 ms (1.00 video frame)
Interleave, preload duration : 512 ms


Plot:
A Marine travels to Louisiana after serving three tours in Iraq and searches for the unknown woman he believes was his good luck charm during the war
 
http://img840.imageshack.us/img840/8518/vlcsnap2012042920h08m53.png 
http://img98.imageshack.us/img98/5985/vlcsnap2012042920h09m05.png 
http://img571.imageshack.us/img571/5674/vlcsnap2012042920h09m12.png 
http://img651.imageshack.us/img651/7990/vlcsnap2012042920h10m12.png